<?xml version="1.0" encoding="UTF-8" standalone="no"?><!DOCTYPE svg PUBLIC "-//W3C//DTD SVG 1.1//EN" "http://www.w3.org/Graphics/SVG/1.1/DTD/svg11.dtd"><svg width="100%" height="100%" viewBox="0 0 551 256" version="1.1" xmlns="http://www.w3.org/2000/svg" xmlns:xlink="http://www.w3.org/1999/xlink" xml:space="preserve" xmlns:serif="http://www.serif.com/" style="fill-rule:evenodd;clip-rule:evenodd;stroke-linejoin:round;stroke-miterlimit:2;"><g id="Layer-1" serif:id="Layer 1"><path d="M449.16,40.069c-4.18,-15.639 -16.498,-27.954 -32.137,-32.134c-28.346,-7.596 -142.013,-7.596 -142.013,-7.596c0,-0 -113.661,-0 -142.01,7.596c-15.639,4.18 -27.957,16.495 -32.137,32.134c-7.594,28.347 -7.594,87.49 -7.594,87.49c-0,-0 -0,59.143 7.594,87.487c4.18,15.639 16.498,27.957 32.14,32.137c28.346,7.596 142.01,7.596 142.01,7.596c-0,0 113.664,0 142.01,-7.596c15.636,-4.18 27.957,-16.498 32.134,-32.137c7.597,-28.344 7.597,-87.487 7.597,-87.487c-0,0 -0,-59.143 -7.594,-87.49" style="fill:#f00;fill-rule:nonzero;"/><path d="M238.663,182.082l94.434,-54.523l-94.434,-54.523l-0,109.046Z" style="fill:#fff;fill-rule:nonzero;"/></g></svg>